<svg xmlns="http://www.w3.org/2000/svg" width="440" height="320" viewBox="0 0 440 320" preserveAspectRatio="xMinYMin meet"><path d="M20.883 213.616l-.134-5.01 319.904-88.827v5.374M22.743 157.547l9.744-2.71c6.887-1.916 8.063.18 8.063 7.613 0 7.997-1.287 9.65-5.095 11.215v.113c4.48-.4 5.375.87 5.375 7.798 0 8.784-1.12 11.912-9.297 14.185l-8.79 2.448v-40.66zm5.6 15.9l3.248-.903c3.36-.935 3.696-1.704 3.696-8.35 0-4.618-.728-5.542-4.31-4.545l-2.635.73v13.066zm0 18.81l3.472-.965c3.192-.888 3.754-2.002 3.754-8.42 0-6.14-.505-6.9-3.586-6.044l-3.64 1.013v14.417zm32.82-35.034c0-5.69 1.848-11.216 9.465-13.333 7.223-2.01 9.52 1.125 9.52 7.433v20.556c0 5.687-1.848 11.214-9.52 13.346-7.167 1.994-9.464-1.14-9.464-7.448v-20.555zm5.602 19.335c0 3.492 1.57 4.914 3.863 4.275 2.353-.654 3.922-2.95 3.922-6.44v-21.345c0-3.998-1.346-5.483-3.922-4.767-2.52.702-3.863 2.934-3.863 6.933v21.344zm33.55-30.226c0-5.688 1.85-11.215 9.465-13.333 5.544-1.542 8.12.558 8.12 5.12v4.055l-5.265 1.465v-2.818c0-2.59-.897-3.974-3.247-3.32-2.91.81-3.472 3.05-3.472 7.95v19.938c0 4.786 1.513 5.208 3.305 4.712 2.073-.577 3.416-2.415 3.416-5.793v-2.818l5.265-1.465v4.506c0 4.28-1.735 8.028-8.232 9.836-7.056 1.963-9.353-1.172-9.353-7.48v-20.557zm37.133-20.69l5.6-1.557v17.456l7.448-2.07v-17.458l5.6-1.558v40.66l-5.6 1.56V144.2l-7.448 2.072v18.472l-5.6 1.558v-40.66zm58.415 15.233c0 4.73-1.85 10.032-9.464 12.15-7.675 2.134-9.523-2.138-9.523-6.87v-31.48l5.6-1.56v32.44c0 2.76 1.007 3.885 3.922 3.077 2.855-.795 3.862-2.483 3.862-5.243v-32.44l5.6-1.557v31.483zm20.78-37.262l8.906-2.476 5.15 29.54.112-.03 5.15-32.407 8.683-2.414v40.662l-5.264 1.464v-36.606l-.11.03-5.714 38.194-5.6 1.558-6.27-34.86-.114.03v36.606l-4.928 1.37v-40.66zM265.598 90l15.232-4.24v4.73l-9.635 2.68v12.727l9.072-2.523v4.73l-9.072 2.525v13.74l9.634-2.68v4.732l-15.233 4.235V90zm34.444-9.584l8.682-2.412c8.175-2.274 9.016-.312 9.016 8.587 0 5.462-.728 8.03-5.32 10.715v.114c3.808-.667 5.096.947 5.096 4.776v8.842c0 1.465 0 3.492.337 5.088l-5.264 1.465c-.56-.858-.672-1.84-.672-3.473v-9.18c0-3.83-.672-4.656-4.37-3.63l-1.902.53v17.684l-5.6 1.56V80.415zm5.6 16.69l1.458-.404c4.423-1.23 5.04-2.25 5.04-8.33 0-6.025-.337-6.495-3.81-5.53l-2.687.75v13.516zM21.12 225.58l5.6-1.558 5.823 30.706.112-.032 5.826-33.945 5.602-1.556-8.23 42.948-6.5 1.808-8.23-38.37zm42.285-11.76l15.23-4.24v4.73l-9.63 2.68v12.727l9.07-2.523v4.73l-9.07 2.523v13.74l9.633-2.678v4.73l-15.234 4.236V213.82zm34.445-9.583l8.68-2.415c8.177-2.273 9.018-.31 9.018 8.587 0 5.46-.728 8.03-5.32 10.714v.113c3.808-.666 5.096.948 5.096 4.777v8.84c0 1.466 0 3.493.34 5.09l-5.268 1.464c-.56-.858-.67-1.84-.67-3.473v-9.18c0-3.83-.673-4.656-4.37-3.63l-1.904.53v17.684l-5.6 1.557v-40.66zm5.6 16.69l1.456-.406c4.424-1.23 5.04-2.248 5.04-8.33 0-6.026-.337-6.496-3.81-5.53l-2.687.748v13.518zm32.373 1.64l5.6-1.56v3.323c0 2.703 1.006 4.113 3.248 3.49 2.968-.827 3.697-3.057 3.697-5.703 0-3.436-.17-4.517-5.994-8.696-3.582-2.61-6.552-5.048-6.552-10.567 0-6.645 3.082-10.374 9.186-12.072 3.023-.84 5.207-.432 6.55.432.953.635 1.625 1.856 1.625 4.728v3.83l-5.263 1.464v-3.21c0-2.31-.952-3.394-3.137-2.787-2.294.638-3.36 2.23-3.36 5.384 0 2.76.562 4.295 5.713 8.267 5.488 4.217 6.497 5.907 6.497 10.808 0 6.363-2.465 10.71-9.13 12.563-5.152 1.433-8.68.218-8.68-4.85v-4.844zm38.144-39.5l9.24-2.57c7.615-2.12 9.072-.44 9.072 8.965s-1.458 11.892-9.074 14.01l-3.64 1.012v17.685l-5.6 1.557v-40.66zm5.6 16.688l2.91-.81c3.81-1.06 4.2-1.79 4.2-7.928 0-6.14-.39-6.65-4.2-5.59l-2.91.81v13.517zm32.988-27.423l8.68-2.414c8.176-2.274 9.015-.312 9.015 8.587 0 5.46-.726 8.032-5.32 10.715v.113c3.81-.665 5.097.948 5.097 4.777v8.842c0 1.465 0 3.492.337 5.09l-5.265 1.462c-.56-.857-.673-1.84-.673-3.474v-9.18c0-3.83-.672-4.656-4.37-3.63l-1.903.53v17.684l-5.6 1.558v-40.66zm5.6 16.69l1.457-.406c4.425-1.23 5.04-2.247 5.04-8.33 0-6.025-.338-6.495-3.81-5.53l-2.687.748v13.517zm32.99-27.423l15.233-4.238v4.73l-9.634 2.68v12.726l9.073-2.523v4.73l-9.073 2.523v13.74l9.634-2.676v4.73l-15.233 4.237V161.6zm33.828.952c0-5.69 1.85-11.216 9.463-13.333 5.546-1.542 8.122.557 8.122 5.12v4.054l-5.265 1.464v-2.816c0-2.59-.897-3.975-3.248-3.32-2.912.81-3.472 3.05-3.472 7.95v19.935c0 4.787 1.513 5.212 3.305 4.712 2.072-.577 3.415-2.415 3.415-5.793v-2.817l5.265-1.464v4.508c0 4.278-1.736 8.028-8.233 9.835-7.056 1.962-9.353-1.173-9.353-7.48v-20.556zm37.134-20.69l5.6-1.56v17.457l7.447-2.07v-17.46l5.602-1.556v40.66l-5.6 1.557v-18.47l-7.448 2.07v18.473l-5.6 1.558v-40.66zm39.598-11.015l15.232-4.237v4.73l-9.632 2.68v12.726l9.073-2.52v4.728l-9.073 2.524v13.74l9.632-2.68v4.733l-15.232 4.236v-40.66zm34.446-9.58l7.727-2.152 6.61 31.953.113-.03v-33.792l5.264-1.463v40.66l-8.063 2.244-6.608-32.852-.112.03v34.69l-4.928 1.372v-40.66z" fill="#fff"/><path d="M29.168 146.237L480.178 26.05v202.023L29.168 348.258z" fill="none" stroke="#fff" stroke-width="3.419" stroke-linecap="round" transform="matrix(.96823 0 0 .97356 -26.582 -22.207)"/></svg>